<svg width="80" height="80" viewBox="0 0 80 80" fill="none" xmlns="http://www.w3.org/2000/svg">
<path d="M53.9657 8.73712V5.71427H44.8628C44.2732 4.99644 43.5318 4.41822 42.6919 4.02123C41.8521 3.62424 40.9346 3.41833 40.0057 3.41833C39.0767 3.41833 38.1593 3.62424 37.3195 4.02123C36.4796 4.41822 35.7382 4.99644 35.1485 5.71427H26.0285V8.71427H12.7371V76.5714H67.2628V8.73712H53.9657ZM37.8285 10.2857L38.4457 8.9657C38.5871 8.67435 38.8081 8.42902 39.0832 8.25811C39.3583 8.0872 39.6761 7.9977 40 7.99998C40.3263 7.99975 40.6459 8.09266 40.9212 8.26777C41.1965 8.44288 41.4161 8.69294 41.5543 8.98855L42.1714 10.2857H49.3943V16.4914H30.6V10.2857H37.8285ZM62.6914 72H17.3085V13.3086H26.0285V21.0628H53.9657V13.3086H62.6914V72Z" fill="white"/>
<path d="M21.2686 37.1029H32.4914V25.88H21.2686V37.1029ZM25.84 30.4514H27.92V32.5314H25.84V30.4514Z" fill="white"/>
<path d="M56.4457 29.2057H36.6229V33.7771H56.4457V29.2057Z" fill="white"/>
<path d="M21.2686 51.0457H32.4914V39.8229H21.2686V51.0457ZM25.84 44.3943H27.92V46.4743H25.84V44.3943Z" fill="white"/>
<path d="M56.4457 43.1486H36.6229V47.72H56.4457V43.1486Z" fill="white"/>
<path d="M21.2686 64.9886H32.4914V53.7657H21.2686V64.9886ZM25.84 58.3372H27.92V60.4172H25.84V58.3372Z" fill="white"/>
<path d="M56.4457 57.0914H36.6229V61.6629H56.4457V57.0914Z" fill="white"/>
</svg>
