<svg width="80" height="80" viewBox="0 0 80 80" fill="none" xmlns="http://www.w3.org/2000/svg">
<path d="M69.0857 15.0513C58.934 14.6774 49.2071 10.8813 41.4857 4.2799L40 3.00562L38.5143 4.2799C30.7929 10.8813 21.066 14.6774 10.9143 15.0513L8.69714 15.1313V17.3485C8.82857 42.7656 17.0114 57.5142 23.8514 65.4056C31.4 74.1142 38.96 76.6571 39.28 76.7599L39.9886 76.9942L40.6971 76.7599C41.0171 76.6571 48.5771 74.1142 56.1257 65.4056C68.5257 51.1199 71.2057 31.377 71.28 17.3485V15.1313L69.0857 15.0513ZM52.8857 62.1828C47.4286 68.5713 41.92 71.3142 40 72.1313C38.0743 71.3085 32.5714 68.5599 27.12 62.1828C18.5086 52.1085 13.7543 37.3828 13.3143 19.4913C23.0493 18.6844 32.3309 15.0274 40 8.97704C47.6691 15.0274 56.9507 18.6844 66.6857 19.4913C66.2514 37.3828 61.4971 52.1085 52.8857 62.1828Z" fill="#1E6F87"/>
<path d="M30.5428 34.6686C30.5463 36.777 31.2538 38.8238 32.553 40.4843C33.8522 42.1448 35.6687 43.3238 37.7143 43.8343V52.0001H42.2857V43.8343C44.0068 43.4056 45.5727 42.5016 46.8044 41.2254C48.0362 39.9492 48.8843 38.3523 49.2518 36.6171C49.6193 34.882 49.4915 33.0784 48.8829 31.4124C48.2742 29.7464 47.2093 28.2851 45.8098 27.1955C44.4103 26.1059 42.7326 25.4317 40.9682 25.2501C39.2038 25.0685 37.424 25.3868 35.8318 26.1685C34.2397 26.9502 32.8995 28.1639 31.9643 29.671C31.0291 31.1781 30.5365 32.9178 30.5428 34.6915V34.6686ZM40 29.7772C40.9677 29.7761 41.9139 30.062 42.7191 30.5988C43.5242 31.1356 44.1521 31.8991 44.5232 32.7928C44.8943 33.6865 44.9919 34.6702 44.8038 35.6194C44.6158 36.5686 44.1503 37.4407 43.4665 38.1254C42.7826 38.81 41.9111 39.2764 40.9621 39.4656C40.0131 39.6548 39.0293 39.5583 38.1352 39.1883C37.241 38.8182 36.4768 38.1913 35.939 37.3868C35.4013 36.5822 35.1143 35.6363 35.1143 34.6686C35.1143 33.3723 35.6288 32.129 36.5449 31.2119C37.461 30.2947 38.7037 29.7787 40 29.7772Z" fill="#1E6F87"/>
</svg>
