<svg width="80" height="80" viewBox="0 0 80 80" fill="none" xmlns="http://www.w3.org/2000/svg">
<path d="M7.70335 49.3306L3.65918 51.4619L10.3729 64.201L14.4171 62.0697L7.70335 49.3306Z" fill="#1E6F87"/>
<path d="M17.0743 60.8629L10.2172 47.8229L41.5372 9.61719L66.2857 56.6172L17.0743 60.8629ZM15.6629 48.3715L19.7029 56.0515L59.0514 52.6229L40.7029 17.84L15.6629 48.3715Z" fill="#1E6F87"/>
<path d="M61.6114 40.8001L59.48 36.7544C60.8509 35.9317 61.8545 34.6151 62.2845 33.0752C62.7145 31.5353 62.5381 29.8892 61.7917 28.4753C61.0452 27.0615 59.7854 25.9874 58.2714 25.4738C56.7573 24.9603 55.104 25.0464 53.6514 25.7144L51.52 21.6572C52.777 20.9946 54.1521 20.5861 55.5669 20.4549C56.9818 20.3237 58.4086 20.4725 59.7659 20.8928C61.1232 21.313 62.3845 21.9965 63.4777 22.9042C64.5708 23.8119 65.4745 24.926 66.1372 26.1829C66.7998 27.4399 67.2083 28.815 67.3395 30.2298C67.4707 31.6447 67.3219 33.0715 66.9016 34.4288C66.4814 35.7861 65.7979 37.0474 64.8902 38.1406C63.9825 39.2338 62.8684 40.1375 61.6114 40.8001Z" fill="#1E6F87"/>
<path d="M65.9142 48.96L63.7828 44.9143C65.58 43.9673 67.1731 42.6755 68.4712 41.1128C69.7692 39.5501 70.7467 37.7471 71.3479 35.8066C71.9491 33.8661 72.1622 31.8262 71.975 29.8034C71.7879 27.7805 71.2041 25.8144 70.2571 24.0171C69.3101 22.2199 68.0183 20.6268 66.4556 19.3288C64.8929 18.0308 63.0899 17.0533 61.1494 16.4521C57.2304 15.2379 52.9896 15.6303 49.3599 17.5429L47.2285 13.4971C51.9312 11.0193 57.4256 10.511 62.503 12.0842C67.5804 13.6573 71.8249 17.1831 74.3028 21.8857C76.7807 26.5884 77.289 32.0828 75.7158 37.1602C74.1426 42.2376 70.6169 46.4821 65.9142 48.96Z" fill="#1E6F87"/>
<path d="M30.76 68.8972L23.8057 55.6972L52 53.2515L47.4285 67.9543L30.76 68.8972ZM31.0571 59.6572L33.4342 64.1658L44 63.5657L45.6057 58.4229L31.0571 59.6572Z" fill="#1E6F87"/>
</svg>
