<svg width="80" height="80" viewBox="0 0 80 80" fill="none" xmlns="http://www.w3.org/2000/svg">
<path d="M67.4286 47.3143V32.6915C68.5061 32.3504 69.4934 31.772 70.3177 30.9987C71.142 30.2254 71.7823 29.277 72.1913 28.2234C72.6004 27.1698 72.7678 26.0378 72.6813 24.9109C72.5948 23.784 72.2565 22.6908 71.6913 21.712C71.1262 20.7332 70.3486 19.8937 69.416 19.2553C68.4833 18.617 67.4192 18.196 66.3022 18.0235C65.1852 17.851 64.0438 17.9313 62.9619 18.2586C61.8801 18.5858 60.8855 19.1516 60.0514 19.9143L47.3829 12.6C47.4972 12.0685 47.5566 11.5266 47.56 10.9829C47.5613 9.92146 47.3389 8.87167 46.9073 7.90194C46.4757 6.93222 45.8445 6.06434 45.055 5.35487C44.2655 4.6454 43.3354 4.11026 42.3252 3.78435C41.3151 3.45844 40.2476 3.34906 39.1923 3.46335C38.137 3.57764 37.1177 3.91303 36.2007 4.44766C35.2838 4.98229 34.4898 5.70416 33.8705 6.56621C33.2512 7.42826 32.8205 8.41113 32.6065 9.45078C32.3925 10.4904 32.4001 11.5635 32.6286 12.6L19.96 19.9143C19.1253 19.1554 18.1312 18.5931 17.0508 18.2686C15.9703 17.9441 14.8309 17.8657 13.7162 18.0392C12.6015 18.2127 11.5398 18.6337 10.6091 19.2712C9.67832 19.9087 8.90219 20.7466 8.33765 21.7233C7.7731 22.7 7.43448 23.7908 7.34664 24.9155C7.2588 26.0402 7.42398 27.1703 7.83004 28.2228C8.23611 29.2753 8.87275 30.2235 9.69322 30.9978C10.5137 31.772 11.4972 32.3527 12.5714 32.6972V47.3086C11.4929 47.6485 10.5045 48.2262 9.67901 48.999C8.85355 49.7719 8.21212 50.7202 7.80204 51.774C7.39195 52.8278 7.22368 53.9603 7.30964 55.0878C7.39559 56.2153 7.73357 57.3091 8.29865 58.2886C8.86374 59.2681 9.6415 60.1082 10.5746 60.747C11.5077 61.3858 12.5722 61.807 13.6898 61.9795C14.8074 62.1519 15.9494 62.0713 17.0316 61.7436C18.1139 61.4158 19.1088 60.8493 19.9429 60.0858L32.6286 67.4286C32.4001 68.4649 32.3925 69.5378 32.6064 70.5772C32.8202 71.6166 33.2507 72.5993 33.8696 73.4613C34.4886 74.3233 35.2823 75.0452 36.1989 75.5799C37.1155 76.1147 38.1345 76.4503 39.1895 76.565C40.2444 76.6797 41.3118 76.5708 42.3218 76.2454C43.3319 75.9201 44.2621 75.3855 45.0519 74.6767C45.8416 73.9678 46.4731 73.1005 46.9052 72.1313C47.3374 71.1621 47.5605 70.1127 47.56 69.0515C47.5569 68.5059 47.4976 67.962 47.3829 67.4286L60.0457 60.1143C60.8825 60.8626 61.8757 61.4149 62.9529 61.7308C64.0301 62.0468 65.1642 62.1185 66.2727 61.9408C67.3811 61.7631 68.4359 61.3403 69.3604 60.7034C70.2848 60.0665 71.0555 59.2314 71.6164 58.2589C72.1772 57.2865 72.5142 56.2012 72.6026 55.0821C72.6911 53.963 72.5288 52.8383 72.1276 51.7898C71.7264 50.7414 71.0964 49.7956 70.2836 49.0214C69.4707 48.2471 68.4953 47.664 67.4286 47.3143ZM60.0514 48.9315L47.3829 41.6229C47.4971 41.0894 47.5564 40.5456 47.56 40C47.5566 39.4563 47.4972 38.9144 47.3829 38.3829L60.0457 31.0686C60.8544 31.8079 61.8135 32.3635 62.8571 32.6972V47.3086C61.8148 47.6426 60.8562 48.1959 60.0457 48.9315H60.0514ZM19.9657 48.9315C19.1523 48.194 18.1895 47.6404 17.1428 47.3086V32.6972C18.1827 32.3627 19.1379 31.8071 19.9429 31.0686L32.6286 38.3829C32.5113 38.914 32.452 39.4562 32.4514 40C32.4523 40.5458 32.5117 41.0898 32.6286 41.6229L19.9657 48.9315ZM40.5371 42.9372C40.3711 42.9666 40.2029 42.9818 40.0343 42.9829C39.8635 42.9828 39.6931 42.9655 39.5257 42.9315C38.8188 42.8224 38.1754 42.4611 37.7143 41.9143C37.4922 41.6537 37.3181 41.3557 37.2 41.0343C37.0779 40.7052 37.016 40.3568 37.0171 40.0058C37.0159 39.6566 37.0779 39.31 37.2 38.9829C37.3807 38.4932 37.687 38.0596 38.0882 37.7256C38.4894 37.3916 38.9713 37.169 39.4857 37.08C39.6549 37.0454 39.8273 37.0282 40 37.0286C40.1708 37.0287 40.3412 37.046 40.5086 37.08C41.0253 37.1672 41.5094 37.3905 41.9112 37.727C42.3129 38.0635 42.6178 38.5009 42.7943 38.9943C42.9167 39.3158 42.9824 39.6561 42.9886 40C42.9803 40.6998 42.7322 41.3755 42.2857 41.9143C41.8338 42.4557 41.2037 42.8184 40.5086 42.9372H40.5371ZM65.1429 22.5086C65.934 22.5086 66.6927 22.8229 67.2521 23.3823C67.8114 23.9417 68.1257 24.7004 68.1257 25.4915C68.1257 26.2826 67.8114 27.0413 67.2521 27.6007C66.6927 28.1601 65.934 28.4743 65.1429 28.4743C64.9742 28.4738 64.806 28.4585 64.64 28.4286C63.9455 28.3185 63.3132 27.9639 62.8571 27.4286C62.6315 27.1641 62.4571 26.8599 62.3428 26.5315C62.2213 26.2062 62.1594 25.8616 62.16 25.5143C62.158 25.1627 62.2219 24.8138 62.3486 24.4858C62.5275 23.9943 62.8331 23.559 63.2345 23.2238C63.6359 22.8886 64.1188 22.6655 64.6343 22.5772C64.8014 22.5393 64.9716 22.5163 65.1429 22.5086ZM57.7714 23.8686C57.5353 24.9357 57.5353 26.0415 57.7714 27.1086L45.0914 34.4229C44.2857 33.6825 43.3282 33.1268 42.2857 32.7943V18.1886C43.3293 17.8605 44.2888 17.3086 45.0971 16.5715L57.7714 23.8686ZM40 8.00004C40.6088 8.00157 41.2026 8.18898 41.702 8.53721C42.2013 8.88544 42.5824 9.37787 42.7943 9.94861C42.9187 10.2793 42.9826 10.6296 42.9828 10.9829C42.9835 11.6843 42.7361 12.3633 42.2843 12.8998C41.8325 13.4362 41.2055 13.7956 40.5143 13.9143C40.345 13.9487 40.1727 13.9659 40 13.9658C39.8273 13.9662 39.6549 13.949 39.4857 13.9143C38.7917 13.8006 38.1624 13.4392 37.7143 12.8972C37.2618 12.3622 37.0147 11.6836 37.0171 10.9829C37.0183 10.6302 37.0802 10.2803 37.2 9.94861C37.4129 9.37741 37.795 8.8848 38.2954 8.5366C38.7957 8.1884 39.3904 8.00121 40 8.00004ZM34.9143 16.5715C35.7193 17.3072 36.6747 17.859 37.7143 18.1886V32.7943C36.6712 33.1283 35.7136 33.686 34.9086 34.4286L22.2457 27.1143C22.482 26.0453 22.482 24.9376 22.2457 23.8686L34.9143 16.5715ZM11.8857 25.4915C11.8887 24.7033 12.2023 23.948 12.7586 23.3896C13.3149 22.8312 14.0689 22.5146 14.8571 22.5086C15.0279 22.5087 15.1983 22.526 15.3657 22.56C15.8811 22.6484 16.364 22.8715 16.7655 23.2067C17.1669 23.5418 17.4725 23.9772 17.6514 24.4686C17.8874 25.1262 17.8874 25.8453 17.6514 26.5029C17.5422 26.8409 17.3696 27.1551 17.1428 27.4286C16.6909 27.97 16.0609 28.3327 15.3657 28.4515C15.1997 28.4811 15.0315 28.4964 14.8628 28.4972C14.0717 28.4957 13.3133 28.1811 12.7533 27.6222C12.1933 27.0633 11.8773 26.3055 11.8743 25.5143L11.8857 25.4915ZM14.8743 57.4915C14.0826 57.4915 13.3234 57.1774 12.7631 56.6182C12.2028 56.0589 11.8872 55.3002 11.8857 54.5086C11.8848 54.0739 11.9794 53.6442 12.1627 53.25C12.346 52.8558 12.6135 52.5066 12.9465 52.2271C13.2794 51.9475 13.6696 51.7445 14.0896 51.6322C14.5096 51.5199 14.9491 51.5011 15.3771 51.5772C16.0682 51.6985 16.6938 52.061 17.1428 52.6C17.4778 53.002 17.7011 53.485 17.7903 54.0005C17.8796 54.5161 17.8317 55.046 17.6514 55.5372C17.4732 56.0285 17.1677 56.4636 16.7661 56.7979C16.3644 57.1323 15.8811 57.3539 15.3657 57.44C15.1983 57.4741 15.0279 57.4913 14.8571 57.4915H14.8743ZM22.2457 56.1258C22.4819 55.0606 22.4819 53.9566 22.2457 52.8915L34.92 45.5772C35.7215 46.3173 36.6752 46.8732 37.7143 47.2058V61.8172C36.6746 62.1493 35.7193 62.703 34.9143 63.44L22.2457 56.1258ZM40 72C39.3895 71.9992 38.794 71.8115 38.2934 71.4622C37.7928 71.1128 37.4113 70.6185 37.2 70.0458C37.0779 69.7186 37.0159 69.3721 37.0171 69.0229C37.0176 68.3203 37.2661 67.6405 37.7187 67.1032C38.1714 66.5658 38.7991 66.2055 39.4914 66.0858C40.0059 65.9973 40.5347 66.0452 41.0249 66.2247C41.5152 66.4042 41.9499 66.7089 42.2857 67.1086C42.7364 67.6446 42.9833 68.3226 42.9828 69.0229C42.9821 69.3724 42.9182 69.7189 42.7943 70.0458C42.5841 70.618 42.2035 71.1121 41.7039 71.4615C41.2043 71.811 40.6097 71.9989 40 72ZM45.0857 63.4286C44.2798 62.6928 43.3248 62.1392 42.2857 61.8058V47.2058C43.3262 46.8726 44.2817 46.3168 45.0857 45.5772L57.7543 52.8972C57.6317 53.4254 57.5723 53.9664 57.5771 54.5086C57.5777 55.0525 57.6371 55.5947 57.7543 56.1258L45.0857 63.4286ZM65.1429 57.4915C64.9742 57.491 64.806 57.4757 64.64 57.4458C64.125 57.3585 63.6422 57.1364 63.2408 56.8022C62.8393 56.468 62.5335 56.0335 62.3543 55.5429C62.1729 55.0509 62.1245 54.5199 62.2137 54.0032C62.303 53.4866 62.5269 53.0026 62.8629 52.6C63.3124 52.0586 63.9407 51.6958 64.6343 51.5772C64.8002 51.5473 64.9685 51.532 65.1371 51.5315C65.5395 51.5138 65.9412 51.5779 66.3181 51.7197C66.695 51.8615 67.0393 52.0782 67.3302 52.3566C67.6211 52.6351 67.8526 52.9696 68.0108 53.3399C68.169 53.7102 68.2505 54.1088 68.2505 54.5115C68.2505 54.9142 68.169 55.3127 68.0108 55.683C67.8526 56.0534 67.6211 56.3879 67.3302 56.6663C67.0393 56.9448 66.695 57.1614 66.3181 57.3033C65.9412 57.4451 65.5395 57.5091 65.1371 57.4915H65.1429Z" fill="#1E6F87"/>
</svg>
