<svg width="80" height="80" viewBox="0 0 80 80" fill="none" xmlns="http://www.w3.org/2000/svg">
<path d="M74.4057 48.6515C74.0526 48.1037 73.5864 47.6378 73.0384 47.285C72.4904 46.9321 71.8734 46.7006 71.2286 46.6058C67.8 46.0343 63.5943 49.08 62.5371 49.8972L53.2686 55.6115C52.7576 54.605 52.0123 53.7361 51.0955 53.0777C50.1786 52.4194 49.117 51.991 48 51.8286C47.3785 51.7487 46.7522 51.7124 46.1257 51.72C43.4629 51.6915 39 51.6343 32.0629 46.4115C21.7143 38.5886 5.49714 49.4629 4.81714 49.9315L7.38857 53.7143C11.2971 51.04 22.8571 45.1886 29.3257 50.0629C37.4571 56.1886 43.0686 56.2572 46.0857 56.2915C46.4921 56.2856 46.8984 56.3028 47.3029 56.3429C48.5429 56.5429 49.2571 57.4858 49.2114 57.8629C49.1838 58.0079 49.1165 58.1423 49.0171 58.2515L47.8743 58.9486L47.9086 59.0058C46.0514 59.8343 40.8229 60.9486 27.6457 57.72L26.56 62.16C32.8457 63.7029 38.0914 64.4458 42.2629 64.4458C46.1829 64.4458 49.1543 63.76 51.1429 62.3886C51.3766 62.2256 51.5999 62.0481 51.8114 61.8572L65.0457 53.7143L65.2571 53.5658C67.3314 51.9315 69.9543 50.8343 70.5771 51.1429C70.8229 51.5258 70.0514 53.1829 68.6057 54.1258L42.4514 71.2686C41.839 71.6734 41.1335 71.9153 40.4015 71.9712C39.6696 72.0272 38.9354 71.8955 38.2686 71.5886L22.3429 63.7886C21.2937 63.2784 20.1303 63.0481 18.9659 63.1202C17.8014 63.1923 16.6754 63.5643 15.6971 64.2L9.98285 67.9372L12.4857 71.76L18.2 68.0229C18.5132 67.8202 18.8733 67.7017 19.2456 67.6787C19.618 67.6557 19.9899 67.7289 20.3257 67.8915L36.3257 75.7315C37.7007 76.3798 39.2196 76.6631 40.7359 76.554C42.2522 76.4449 43.7148 75.9471 44.9829 75.1086L71.1429 57.9658C74.2857 55.8915 76.4172 51.7543 74.4057 48.6515Z" fill="#1E6F87"/>
<path d="M24.7143 37.4229L30.32 36.28C30.8691 36.6468 31.4418 36.9771 32.0343 37.2686L33.8343 42.6914H44.3371L46.1429 37.2629C46.7213 36.9678 47.2822 36.6397 47.8229 36.28L53.44 37.4229L58.6857 28.32L54.9029 24.04C54.9029 23.7029 54.9371 23.3772 54.9371 23.0572C54.9371 22.7372 54.9371 22.4114 54.9029 22.0743L58.6857 17.8L53.44 8.69145L47.8286 9.8343C47.2792 9.46786 46.7066 9.13764 46.1143 8.84573L44.3371 3.42859H33.8171L32 8.85145C31.4215 9.14848 30.8606 9.47855 30.32 9.84002L24.7029 8.69716L19.4686 17.8L23.2514 22.08C23.2286 22.4114 23.2171 22.7372 23.2171 23.0572C23.2171 23.3829 23.2171 23.7086 23.2514 24.04L19.4686 28.32L24.7143 37.4229ZM27.8857 24.4172C27.8245 23.9663 27.792 23.5121 27.7886 23.0572C27.7938 22.608 27.8262 22.1595 27.8857 21.7143C27.9288 21.3642 27.8971 21.009 27.7927 20.6721C27.6883 20.3352 27.5135 20.0243 27.28 19.76L25.0743 17.2629L27.0286 13.8629L30.2857 14.4972L30.5543 14.5486H30.7886C31.3293 14.5499 31.8554 14.3732 32.2857 14.0457C33.0255 13.4858 33.8292 13.0158 34.68 12.6457C35.0036 12.5056 35.294 12.2988 35.5323 12.0389C35.7705 11.7789 35.9513 11.4717 36.0629 11.1372L37.1429 8.00002H41.0686L42.1143 11.1429C42.2273 11.4782 42.4093 11.7861 42.6484 12.0469C42.8876 12.3076 43.1786 12.5155 43.5028 12.6572C44.3417 13.0144 45.1326 13.4752 45.8571 14.0286C46.2933 14.3682 46.83 14.5532 47.3829 14.5543H47.6514L51.1543 13.8457L53.1086 17.2457L50.8571 19.7314C50.6277 20.0031 50.4582 20.3202 50.3597 20.6619C50.2612 21.0035 50.236 21.3622 50.2857 21.7143C50.3467 22.1632 50.3792 22.6156 50.3829 23.0686C50.3784 23.5254 50.3459 23.9815 50.2857 24.4343C50.238 24.7819 50.2642 25.1357 50.3627 25.4725C50.4611 25.8093 50.6296 26.1214 50.8571 26.3886L53.0629 28.8857L51.1086 32.3143L47.84 31.6457L47.5714 31.5943H47.3371C46.7953 31.5921 46.2683 31.7711 45.84 32.1029C45.1073 32.658 44.3112 33.1241 43.4686 33.4914C43.14 33.6308 42.8447 33.8384 42.6024 34.1004C42.3601 34.3625 42.1762 34.673 42.0629 35.0114L41.0229 38.1486H37.1429L36.1029 35.0229C35.9915 34.6836 35.8091 34.3719 35.5676 34.1088C35.3262 33.8457 35.0314 33.6372 34.7029 33.4972C33.8619 33.1358 33.0692 32.6713 32.3429 32.1143C31.9065 31.7798 31.3727 31.5972 30.8229 31.5943H30.5943L27.0286 32.2857L25.0743 28.8572L27.2857 26.3543C27.515 26.091 27.6869 25.7826 27.7902 25.4491C27.8935 25.1155 27.926 24.764 27.8857 24.4172Z" fill="#1E6F87"/>
<path d="M39.0743 30.3372C40.5189 30.3372 41.9311 29.9087 43.1321 29.106C44.3332 28.3033 45.2692 27.1624 45.8218 25.8277C46.3744 24.4929 46.5186 23.0243 46.2364 21.6075C45.9541 20.1907 45.2581 18.8895 44.2362 17.8684C43.2143 16.8473 41.9125 16.1522 40.4955 15.8711C39.0785 15.5899 37.61 15.7354 36.2756 16.289C34.9413 16.8426 33.8012 17.7795 32.9994 18.9812C32.1976 20.1829 31.7703 21.5954 31.7714 23.04C31.7745 24.9754 32.545 26.8306 33.9141 28.1986C35.2831 29.5665 37.1389 30.3357 39.0743 30.3372ZM39.0743 20.3086C39.6145 20.3086 40.1426 20.4688 40.5918 20.7689C41.041 21.0691 41.3911 21.4956 41.5978 21.9947C41.8045 22.4938 41.8586 23.043 41.7532 23.5729C41.6478 24.1027 41.3877 24.5894 41.0057 24.9714C40.6237 25.3534 40.137 25.6136 39.6072 25.719C39.0773 25.8244 38.5281 25.7703 38.029 25.5635C37.5299 25.3568 37.1033 25.0067 36.8032 24.5575C36.5031 24.1083 36.3429 23.5802 36.3429 23.04C36.3429 22.3156 36.6306 21.6208 37.1429 21.1086C37.6551 20.5964 38.3499 20.3086 39.0743 20.3086Z" fill="#1E6F87"/>
</svg>
