<svg width="230" height="64" viewBox="0 0 230 64" fill="none" xmlns="http://www.w3.org/2000/svg">
<g clip-path="url(#clip0)">
<path d="M90.1185 14.7537C89.321 14.7537 88.9222 14.1556 88.9222 13.5575V1.99363C88.9222 1.39549 89.321 0.797363 90.1185 0.797363H94.5048C98.4923 0.797363 100.885 3.78802 100.885 7.77556C100.885 11.7631 98.4923 14.7537 94.5048 14.7537H90.1185ZM91.9129 12.1618H94.5048C96.6979 12.1618 97.8942 10.1681 97.8942 7.77556C97.8942 5.38303 96.6979 3.38926 94.5048 3.38926H91.9129V12.1618Z" fill="#012A48"/>
<path d="M104.274 0.199463C105.271 0.199463 106.068 0.996971 106.068 1.79448C106.068 2.59199 105.271 3.38949 104.274 3.38949C103.277 3.38949 102.48 2.59199 102.48 1.79448C102.48 0.996971 103.277 0.199463 104.274 0.199463ZM105.67 13.5577C105.67 14.3552 105.072 14.754 104.274 14.754C103.476 14.754 102.878 14.1559 102.878 13.5577V6.38015C102.878 5.78202 103.476 5.18389 104.274 5.18389C105.072 5.18389 105.67 5.78202 105.67 6.38015V13.5577Z" fill="#012A48"/>
<path d="M108.66 15.9501C109.259 15.5514 110.056 15.5514 110.455 15.9501C111.053 16.5482 111.85 16.947 112.648 16.947C114.841 16.947 115.439 15.5514 115.24 13.5576V13.3582C114.642 14.3551 113.446 14.9532 112.249 14.9532C109.857 14.9532 107.664 13.1588 107.664 9.9688C107.664 6.77877 109.857 4.98438 112.249 4.98438C112.847 4.98438 114.243 5.18375 115.041 6.57939V6.38001C115.041 5.78188 115.639 5.18375 116.436 5.18375C117.234 5.18375 117.832 5.78188 117.832 6.38001V13.3582C117.832 17.5451 115.838 19.5389 112.449 19.5389C110.854 19.5389 109.259 18.7414 108.461 17.5451C108.062 17.1464 108.262 16.3489 108.66 15.9501ZM112.847 12.5607C114.044 12.5607 115.24 11.3644 115.24 10.1682C115.24 8.97191 114.243 7.77565 112.847 7.77565C111.452 7.77565 110.654 8.97191 110.654 10.1682C110.654 11.3644 111.252 12.5607 112.847 12.5607Z" fill="#012A48"/>
<path d="M121.819 0.199463C122.816 0.199463 123.614 0.996971 123.614 1.79448C123.614 2.59199 122.816 3.38949 121.819 3.38949C120.822 3.38949 120.025 2.59199 120.025 1.79448C120.025 0.996971 120.822 0.199463 121.819 0.199463ZM123.215 13.5577C123.215 14.3552 122.617 14.754 121.819 14.754C121.022 14.754 120.424 14.1559 120.424 13.5577V6.38015C120.424 5.78202 121.022 5.18389 121.819 5.18389C122.617 5.18389 123.215 5.78202 123.215 6.38015V13.5577Z" fill="#012A48"/>
<path d="M126.405 5.38313V2.79123C126.405 2.1931 127.003 1.59497 127.801 1.59497C128.598 1.59497 129.196 2.1931 129.196 2.79123V5.18376H130.193C130.791 5.18376 131.19 5.78189 131.19 6.38002C131.19 6.97815 130.791 7.57628 130.193 7.57628H129.196V13.757C129.196 14.5545 128.598 14.9532 127.801 14.9532C127.003 14.9532 126.405 14.3551 126.405 13.757V7.57628H125.607C125.009 7.57628 124.611 6.97815 124.611 6.38002C124.611 5.78189 125.009 5.18376 125.607 5.18376H126.405V5.38313Z" fill="#012A48"/>
<path d="M139.763 6.3801C139.763 5.78197 140.361 5.18384 141.159 5.18384C141.956 5.18384 142.554 5.78197 142.554 6.3801V13.5577C142.554 14.3552 141.956 14.7539 141.159 14.7539C140.361 14.7539 139.763 14.1558 139.763 13.5577C139.165 14.5546 137.969 15.1527 136.972 15.1527C134.579 15.1527 132.386 13.3583 132.386 10.1683C132.386 6.97823 134.579 5.18384 136.972 5.18384C137.57 5.18384 138.966 5.38322 139.763 6.3801ZM137.371 12.5608C138.567 12.5608 139.763 11.3645 139.763 10.1683C139.763 8.972 138.766 7.77574 137.371 7.77574C135.975 7.77574 135.178 8.972 135.178 10.1683C135.178 11.3645 135.975 12.5608 137.371 12.5608Z" fill="#012A48"/>
<path d="M147.938 13.5576C147.938 14.3551 147.34 14.7539 146.542 14.7539C145.745 14.7539 145.146 14.1558 145.146 13.5576V1.19626C145.146 0.598131 145.745 0 146.542 0C147.34 0 147.938 0.598131 147.938 1.19626V13.5576Z" fill="#012A48"/>
<path d="M94.5047 27.9129V38.0811C94.5047 38.8786 93.9065 39.4767 93.109 39.4767C92.3115 39.4767 91.7134 38.8786 91.7134 38.0811V27.9129H88.9221C88.324 27.9129 87.7258 27.3147 87.7258 26.5172C87.7258 25.7197 88.324 25.1216 88.9221 25.1216H97.2959C97.8941 25.1216 98.4922 25.7197 98.4922 26.5172C98.4922 27.1154 97.8941 27.9129 97.2959 27.9129H94.5047Z" fill="#012A48"/>
<path d="M105.47 31.1028C105.271 31.9003 104.673 32.0997 104.075 32.0997C103.875 32.0997 103.476 32.0997 103.476 32.0997C101.881 32.0997 101.283 33.296 101.283 35.6885V38.081C101.283 38.8785 100.685 39.2773 99.8877 39.2773C99.0902 39.2773 98.4921 38.6792 98.4921 38.081V30.9035C98.4921 30.3053 99.0902 29.7072 99.8877 29.7072C100.685 29.7072 101.283 30.3053 101.283 30.9035V31.9003C101.881 30.1059 102.878 29.5078 103.875 29.5078C104.673 29.5078 105.67 29.9066 105.47 31.1028Z" fill="#012A48"/>
<path d="M113.645 30.9035C113.645 30.3053 114.243 29.7072 115.041 29.7072C115.838 29.7072 116.436 30.3053 116.436 30.9035V38.081C116.436 38.8785 115.838 39.2773 115.041 39.2773C114.243 39.2773 113.645 38.6792 113.645 38.081V37.8816C113.047 38.8785 111.85 39.4767 110.854 39.4767C108.461 39.4767 106.268 37.6823 106.268 34.4922C106.268 31.3022 108.461 29.5078 110.854 29.5078C111.252 29.5078 112.847 29.9066 113.645 30.9035ZM111.252 36.8848C112.449 36.8848 113.645 35.6885 113.645 34.4922C113.645 33.296 112.648 32.0997 111.252 32.0997C109.857 32.0997 109.059 33.296 109.059 34.4922C109.059 35.6885 109.857 36.8848 111.252 36.8848Z" fill="#012A48"/>
<path d="M121.62 31.1028C122.218 30.1059 123.215 29.5078 124.411 29.5078C126.604 29.5078 128 30.9034 128 33.4953V38.081C128 38.8785 127.402 39.2773 126.604 39.2773C125.807 39.2773 125.209 38.6792 125.209 38.081V34.0935C125.209 32.8972 124.611 32.0997 123.614 32.0997C122.617 32.0997 121.819 32.4985 121.819 34.0935V37.8816C121.819 38.6792 121.221 39.0779 120.424 39.0779C119.626 39.0779 119.028 38.4798 119.028 37.8816V30.7041C119.028 30.1059 119.626 29.5078 120.424 29.5078C121.221 29.5078 121.819 30.1059 121.819 30.7041V31.1028H121.62Z" fill="#012A48"/>
<path d="M130.393 36.0873C130.991 35.8879 131.589 36.0872 131.988 36.486C132.586 37.0841 133.184 37.2835 133.782 37.2835C134.38 37.2835 134.978 37.0841 134.978 36.6854C134.978 36.2866 134.779 36.0873 133.981 35.8879L132.984 35.4891C130.193 34.4922 130.193 33.0966 130.193 32.2991C130.193 30.9035 131.788 29.5078 133.981 29.5078C135.377 29.5078 136.773 29.9066 137.371 31.1028C137.769 31.701 137.57 32.2991 137.171 32.4985C136.573 32.8972 135.975 32.6978 135.377 32.2991C134.978 31.9003 134.579 31.9003 134.181 31.9003C133.583 31.9003 133.184 32.0997 133.184 32.4985C133.184 32.8972 133.383 32.8972 133.981 33.0966L135.377 33.4953C137.769 34.2929 137.969 35.6885 137.969 36.2866C137.969 38.2804 135.776 39.2773 133.782 39.2773C132.187 39.2773 130.393 38.6792 129.994 37.2835C129.595 36.8848 129.994 36.2866 130.393 36.0873Z" fill="#012A48"/>
<path d="M144.548 29.7072C145.146 29.7072 145.545 30.3054 145.545 30.9035C145.545 31.5016 145.146 32.0998 144.548 32.0998H143.551V38.2804C143.551 39.078 142.953 39.4767 142.156 39.4767C141.358 39.4767 140.76 38.8786 140.76 38.2804V32.0998H139.763C139.165 32.0998 138.766 31.5016 138.766 30.9035C138.766 30.3054 139.165 29.7072 139.763 29.7072H140.76V29.1091C140.76 26.1185 142.156 24.5234 144.947 24.5234H145.146C145.944 24.5234 146.542 25.1216 146.542 25.9191C146.542 26.5172 145.944 27.1153 145.146 27.3147H144.947C143.95 27.3147 143.551 27.9128 143.551 29.1091V29.9066H144.548V29.7072Z" fill="#012A48"/>
<path d="M146.343 34.4922C146.343 31.5016 148.536 29.5078 151.327 29.5078C154.118 29.5078 156.311 31.5016 156.311 34.4922C156.311 37.4829 154.118 39.4767 151.327 39.4767C148.536 39.4767 146.343 37.4829 146.343 34.4922ZM153.52 34.4922C153.52 33.296 152.523 32.2991 151.327 32.2991C150.131 32.2991 149.134 33.0966 149.134 34.4922C149.134 35.8879 150.131 36.6854 151.327 36.6854C152.523 36.6854 153.52 35.8879 153.52 34.4922Z" fill="#012A48"/>
<path d="M165.283 31.1028C165.084 31.9003 164.486 32.0997 163.888 32.0997C163.688 32.0997 163.29 32.0997 163.29 32.0997C161.695 32.0997 161.096 33.296 161.096 35.6885V38.081C161.096 38.8785 160.498 39.2773 159.701 39.2773C158.903 39.2773 158.305 38.6792 158.305 38.081V30.9035C158.305 30.3053 158.903 29.7072 159.701 29.7072C160.498 29.7072 161.096 30.3053 161.096 30.9035V31.9003C161.695 30.1059 162.691 29.5078 163.688 29.5078C164.486 29.5078 165.483 29.9066 165.283 31.1028Z" fill="#012A48"/>
<path d="M181.632 38.0809C181.632 38.8784 181.034 39.2772 180.237 39.2772C179.439 39.2772 178.841 38.6791 178.841 38.0809V34.0934C178.841 32.8971 178.044 32.0996 177.246 32.0996C176.249 32.0996 175.651 32.6978 175.651 34.0934V37.8816C175.651 38.6791 175.053 39.0778 174.255 39.0778C173.458 39.0778 172.86 38.4797 172.86 37.8816V33.894C172.86 32.6978 172.062 32.0996 171.265 32.0996C170.467 32.0996 169.67 32.4984 169.67 34.0934V37.8816C169.67 38.6791 169.072 39.0778 168.274 39.0778C167.477 39.0778 166.878 38.4797 166.878 37.8816V30.704C166.878 30.1059 167.477 29.5077 168.274 29.5077C169.072 29.5077 169.67 30.1059 169.67 30.704V30.9034C170.068 29.9065 171.065 29.3083 172.062 29.3083C173.657 29.3083 174.654 29.7071 175.252 31.1027C175.85 29.5077 177.445 29.3083 178.044 29.3083C180.237 29.3083 181.832 30.704 181.832 33.6946V38.0809H181.632Z" fill="#012A48"/>
<path d="M191.003 30.9035C191.003 30.3053 191.601 29.7072 192.399 29.7072C193.196 29.7072 193.794 30.3053 193.794 30.9035V38.081C193.794 38.8785 193.196 39.2773 192.399 39.2773C191.601 39.2773 191.003 38.6792 191.003 38.081V37.8816C190.405 38.8785 189.209 39.4767 188.212 39.4767C185.819 39.4767 183.626 37.6823 183.626 34.4922C183.626 31.3022 185.819 29.5078 188.212 29.5078C188.81 29.5078 190.206 29.9066 191.003 30.9035ZM188.81 36.8848C190.006 36.8848 191.203 35.6885 191.203 34.4922C191.203 33.296 190.206 32.0997 188.81 32.0997C187.414 32.0997 186.617 33.296 186.617 34.4922C186.617 35.6885 187.215 36.8848 188.81 36.8848Z" fill="#012A48"/>
<path d="M197.184 29.7072V27.3147C197.184 26.7165 197.782 26.1184 198.579 26.1184C199.377 26.1184 199.975 26.7165 199.975 27.3147V29.7072H200.972C201.57 29.7072 201.969 30.3053 201.969 30.9035C201.969 31.5016 201.57 32.0997 200.972 32.0997H199.975V38.2804C199.975 39.0779 199.377 39.4767 198.579 39.4767C197.782 39.4767 197.184 38.8785 197.184 38.2804V32.0997H196.386C195.788 32.0997 195.389 31.5016 195.389 30.9035C195.389 30.3053 195.788 29.7072 196.386 29.7072H197.184Z" fill="#012A48"/>
<path d="M204.959 24.5234C205.956 24.5234 206.754 25.3209 206.754 26.1185C206.754 26.916 205.956 27.7135 204.959 27.7135C203.962 27.7135 203.165 26.916 203.165 26.1185C203.165 25.3209 203.962 24.5234 204.959 24.5234ZM206.355 38.0811C206.355 38.8786 205.757 39.2773 204.959 39.2773C204.162 39.2773 203.564 38.6792 203.564 38.0811V30.9035C203.564 30.3054 204.162 29.7072 204.959 29.7072C205.757 29.7072 206.355 30.3054 206.355 30.9035V38.0811Z" fill="#012A48"/>
<path d="M208.349 34.4922C208.349 31.5016 210.542 29.5078 213.333 29.5078C216.125 29.5078 218.318 31.5016 218.318 34.4922C218.318 37.4829 216.125 39.4767 213.333 39.4767C210.542 39.4767 208.349 37.4829 208.349 34.4922ZM215.526 34.4922C215.526 33.296 214.53 32.2991 213.333 32.2991C212.137 32.2991 211.14 33.0966 211.14 34.4922C211.14 35.8879 212.137 36.6854 213.333 36.6854C214.53 36.6854 215.526 35.8879 215.526 34.4922Z" fill="#012A48"/>
<path d="M223.103 31.1028C223.701 30.1059 224.698 29.5078 225.894 29.5078C228.087 29.5078 229.483 30.9034 229.483 33.4953V38.081C229.483 38.8785 228.885 39.2773 228.087 39.2773C227.29 39.2773 226.692 38.6792 226.692 38.081V34.0935C226.692 32.8972 226.094 32.0997 225.097 32.0997C224.1 32.0997 223.302 32.4985 223.302 34.0935V37.8816C223.302 38.6792 222.704 39.0779 221.907 39.0779C221.109 39.0779 220.511 38.4798 220.511 37.8816V30.7041C220.511 30.1059 221.109 29.5078 221.907 29.5078C222.704 29.5078 223.302 30.1059 223.302 30.7041V31.1028H223.103Z" fill="#012A48"/>
<path d="M97.894 57.62H91.1152V62.8038C91.1152 63.4019 90.7165 63.8007 90.1183 63.8007C89.5202 63.8007 89.1215 63.4019 89.1215 62.8038V50.4424C89.1215 49.8443 89.5202 49.4456 90.1183 49.4456C90.7165 49.4456 91.1152 49.8443 91.1152 50.4424V55.8256H97.894V50.4424C97.894 49.8443 98.2928 49.4456 98.8909 49.4456C99.4891 49.4456 99.8878 49.8443 99.8878 50.4424V62.8038C99.8878 63.4019 99.4891 63.8007 98.8909 63.8007C98.2928 63.8007 97.894 63.4019 97.894 62.8038V57.62Z" fill="#012A48"/>
<path d="M109.458 62.4049C108.86 63.6012 107.464 63.9999 106.467 63.9999C104.075 63.9999 102.879 62.4049 102.879 59.813V55.2274C102.879 54.6292 103.277 54.2305 103.875 54.2305C104.474 54.2305 104.872 54.6292 104.872 55.2274V59.813C104.872 61.408 105.67 62.4049 107.065 62.4049C108.461 62.4049 109.857 61.6074 109.857 59.6136V55.2274C109.857 54.6292 110.255 54.2305 110.854 54.2305C111.452 54.2305 111.851 54.6292 111.851 55.2274V63.0031C111.851 63.6012 111.452 63.9999 110.854 63.9999C110.255 63.9999 109.857 63.6012 109.857 63.0031V62.4049H109.458Z" fill="#012A48"/>
<path d="M116.237 55.6262C116.835 54.6293 118.231 54.0312 119.626 54.0312C122.218 54.0312 124.411 56.025 124.411 59.0156C124.411 62.0063 122.218 64.0001 119.626 64.0001C118.231 64.0001 116.835 63.4019 116.237 62.405V63.0032C116.237 63.6013 115.838 64.0001 115.24 64.0001C114.642 64.0001 114.243 63.6013 114.243 63.0032V49.8443C114.243 49.2462 114.642 48.8474 115.24 48.8474C115.838 48.8474 116.237 49.2462 116.237 49.8443V55.6262ZM119.427 62.2057C121.221 62.2057 122.418 60.81 122.418 59.0156C122.418 57.0219 121.022 55.8256 119.427 55.8256C117.832 55.8256 116.237 56.8225 116.237 59.0156C116.237 61.0094 117.832 62.2057 119.427 62.2057Z" fill="#012A48"/>
<path d="M63.402 0.598145V45.6573H45.0593V18.7414H18.1434V0.598145H63.402Z" fill="#2BA795"/>
<path d="M18.3427 45.6575H0V64.0001H18.3427V45.6575Z" fill="#FFA630"/>
</g>
<defs>
<clipPath id="clip0">
<rect width="229.283" height="64" fill="white"/>
</clipPath>
</defs>
</svg>
